<svg version="1.0" xmlns="http://www.w3.org/2000/svg" width="933.333" height="933.333" viewBox="0 0 700 700"><path d="M335.9 70.4c-.2.2-3.8.7-7.9 1.1-19.1 1.8-45.5 10.6-64.2 21.3-20.5 11.7-40.6 29.4-53.6 47.2-3.4 4.7-6.6 8.9-7 9.5-1.5 1.9-8.6 15-11.8 21.5-4.1 8.6-8.8 22.4-11.5 33.5-2.7 11.6-2.8 11.9-3.5 19-.4 3.3-.8 6.7-1 7.5-.1.8-.3 20.1-.3 42.7L175 315h-3.4c-5.6 0-17.5 2.8-24 5.7-16.6 7.3-30.8 21.5-37.1 37.2-5.7 14-5.6 12.1-5.3 117.1.2 53.1.7 97.8 1.1 99.4 5.9 22.6 19.2 39.2 38.6 48.6 3.1 1.5 8.3 3.6 11.6 4.6 5.8 1.8 12.5 1.9 193 1.9 178.5 0 187.3-.1 193.5-1.8 22.3-6.4 40.1-22.7 47.9-44.2 4-11.1 4.1-12.3 4.1-110.1 0-96.4-.1-100.1-4-111.6-5.9-17.3-20.5-33.2-37.5-40.7-6.2-2.8-19.7-6.1-24.7-6.1H525l-.1-40.3c0-22.1-.2-41.6-.4-43.2-.2-1.7-.7-5.5-1-8.5-1.5-14.6-10-44.8-13.6-48.5-.5-.5-.9-1.4-.9-2.1 0-2.1-11.5-22-17.7-30.5-6.6-9.3-21.7-25.1-31.3-33-15.3-12.5-35.2-23.3-54.5-29.7-6.6-2.2-13.3-4.3-15-4.5-1.6-.3-5.7-1.1-9-1.8-3.3-.6-7.3-1.3-9-1.6-4.6-.6-36-1.4-36.6-.9zm38.6 72.5c5 1.2 9.9 2.6 11 3.1 1.1.5 4.9 2.2 8.5 3.8 10.2 4.5 20.7 11.9 30 21.2 16 15.9 25.6 34.3 29.5 56.8 1 5.6 1.4 18.7 1.5 47.4V315H245v-39.8c.1-41.7.6-47.7 4.9-61.7 6-19.2 18.8-37.8 35.4-51.3 10.2-8.3 30.9-18 42.5-19.8 2-.4 5.7-1 8.2-1.4 8.8-1.4 28.9-.5 38.5 1.9z"/></svg>